<?xml version="1.0" encoding="utf-8"?>
<!-- Generator: Adobe Illustrator 17.0.0, SVG Export Plug-In . SVG Version: 6.00 Build 0)  -->
<!DOCTYPE svg PUBLIC "-//W3C//DTD SVG 1.1//EN" "http://www.w3.org/Graphics/SVG/1.1/DTD/svg11.dtd">
<svg version="1.1" id="Слой_1" xmlns="http://www.w3.org/2000/svg" xmlns:xlink="http://www.w3.org/1999/xlink" x="0px" y="0px"
	 width="24px" height="24px" viewBox="0 0 24 24" enable-background="new 0 0 24 24" xml:space="preserve">
<rect opacity="0.0078" fill="none" stroke="#000000" stroke-width="3.200000e-011" width="24" height="24"/>
<path d="M12,9c-1.66,0-3,1.34-3,3s1.34,3,3,3s3-1.34,3-3S13.66,9,12,9z M12,17c-2.76,0-5-2.24-5-5s2.24-5,5-5s5,2.24,5,5
	S14.76,17,12,17z M12,4.5C7,4.5,2.73,7.61,1,12c1.73,4.39,6,7.5,11,7.5s9.27-3.11,11-7.5C21.27,7.61,17,4.5,12,4.5z"/>
</svg>
